<?xml version="1.0" standalone="no"?>
<!DOCTYPE svg PUBLIC "-//W3C//DTD SVG 20010904//EN"
 "http://www.w3.org/TR/2001/REC-SVG-20010904/DTD/svg10.dtd">
<svg version="1.0" xmlns="http://www.w3.org/2000/svg"
 width="100.000000pt" height="100.000000pt" viewBox="0 0 100.000000 100.000000"
 preserveAspectRatio="xMidYMid meet">

<g transform="translate(0.000000,100.000000) scale(0.100000,-0.100000)"
fill="#000000" stroke="none">
<path d="M287 950 c-59 -15 -134 -57 -176 -99 -107 -107 -119 -280 -26 -388
19 -23 35 -46 35 -53 0 -6 -23 -34 -51 -61 -49 -47 -51 -52 -35 -67 13 -13 35
-17 94 -17 64 1 85 5 127 28 42 23 65 28 136 30 70 3 96 8 151 34 76 36 136
93 170 161 32 66 32 178 0 244 -56 113 -174 187 -310 194 -42 2 -94 -1 -115
-6z m193 -46 c265 -79 297 -386 52 -506 -59 -29 -76 -33 -153 -34 -70 -1 -92
-5 -115 -21 -34 -25 -96 -43 -143 -43 l-35 0 26 28 c58 61 60 89 14 144 -187
218 60 519 354 432z"/>
<path d="M205 709 c-16 -24 18 -29 181 -27 142 3 169 5 169 18 0 13 -27 15
-172 18 -118 2 -174 -1 -178 -9z"/>
<path d="M205 589 c-15 -23 14 -30 111 -27 80 2 99 6 99 18 0 12 -19 16 -102
18 -67 2 -104 -1 -108 -9z"/>
<path d="M465 590 c-12 -19 10 -32 51 -28 27 2 39 8 39 18 0 19 -79 27 -90 10z"/>
<path d="M775 688 c4 -13 17 -30 28 -38 12 -8 41 -33 63 -56 93 -94 97 -239 8
-342 -18 -22 -34 -49 -34 -60 0 -11 16 -41 35 -66 l35 -46 -33 0 c-45 0 -107
19 -141 43 -23 16 -45 20 -115 21 -76 1 -94 5 -153 34 -36 18 -80 48 -97 67
-17 19 -37 35 -46 35 -52 0 41 -100 135 -143 53 -25 79 -31 148 -34 49 -1 93
-8 106 -16 47 -30 94 -42 163 -42 56 0 76 4 90 18 17 17 16 19 -25 53 -67 57
-69 66 -23 130 88 124 77 273 -29 383 -22 22 -58 50 -80 61 l-42 21 7 -23z"/>
</g>
</svg>
